<svg preserveAspectRatio="none" overflow="visible" style="display: block;" width="33.6864" height="38.6332" viewBox="0 0 33.6864 38.6332" fill="none" xmlns="http://www.w3.org/2000/svg">
<g id="Group">
<path id="Vector" d="M2.65516 18.5798C-0.23742 21.4005 2.29584 26.8263 4.82909 29.0003C8.06304 31.7851 11.6383 32.9529 15.6628 34.0129C20.7653 35.3604 23.3344 35.001 27.1613 31.3539C30.3413 28.3176 33.8088 23.826 33.6831 19.0828C33.5573 14.4296 28.7603 10.9441 25.3107 8.60845C20.9988 5.67994 16.6689 1.907 11.2251 1.42191C3.82297 0.775122 0.840562 10.2793 2.65516 18.5798Z" fill="#DB7F10"/>
<path id="Vector_2" d="M0.193013 24.5093C0.893701 29.8094 2.99577 31.606 4.88223 31.8216C5.99615 31.9474 7.32566 30.6897 8.06228 29.8992C9.62535 28.2283 9.10432 26.9348 8.29584 24.8507C7.46939 22.7127 5.90631 20.7184 6.24767 18.5085C6.7687 15.2566 9.57145 16.8197 11.3322 14.9871C13.4342 12.8132 10.901 10.6213 9.84095 8.5911C8.72703 6.45311 11.0986 5.01581 11.404 2.73408C11.7274 0.272688 10.5955 -0.10461 7.93652 0.0211549C5.60089 0.128953 3.39102 2.08729 2.85203 4.13545C2.09745 6.93821 2.42084 9.47146 1.66625 12.3101C0.767936 15.6878 -0.507678 19.1014 0.210977 24.5093H0.193013Z" fill="#160000"/>
<path id="Vector_3" d="M15.9839 38.6132C13.8459 38.3258 13.3788 32.6484 14.9059 30.0972C16.1995 27.9412 18.8046 28.3544 20.7989 28.3365C22.1104 28.3185 24.464 28.2466 25.524 27.3663C27.4285 25.7852 26.7637 23.5933 29.5125 22.9106C30.1773 22.7489 32.477 22.4794 32.998 23.0005C33.6089 23.6113 33.2316 24.869 33.1597 25.8032C32.9441 28.57 32.1177 30.6901 30.3749 32.9179C28.5603 35.2715 27.0152 36.2956 24.1047 36.5112C22.7392 36.601 22.3799 36.5651 21.1941 37.0861C19.8826 37.661 18.7327 38.6851 15.9659 38.6312L15.9839 38.6132Z" fill="#160000"/>
<path id="Vector_4" d="M19.9181 2.21729C15.7499 5.64886 23.8168 14.4164 27.7335 12.3862C33.0156 9.63739 23.4934 -0.118339 19.9181 2.21729Z" fill="#160000"/>
</g>
</svg>
