<svg preserveAspectRatio="none" width="100%" height="100%" overflow="visible" style="display: block;" viewBox="0 0 72.6988 73.1532" fill="none" xmlns="http://www.w3.org/2000/svg">
<g id="Vector" style="mix-blend-mode:multiply">
<path d="M64.3616 0.622969H8.33721C6.21577 0.622969 4.28417 1.49513 2.88913 2.90719C1.49409 4.31095 0.6191 6.25462 0.6191 8.38932V64.7639C0.6191 66.8986 1.48584 68.8423 2.88913 70.246C4.28417 71.6498 6.21577 72.5302 8.33721 72.5302H64.3616C66.4831 72.5302 68.4147 71.6581 69.8097 70.246C71.2048 68.8423 72.0797 66.8986 72.0797 64.7639V8.38932C72.0797 6.25462 71.213 4.31095 69.8097 2.90719C68.4147 1.50343 66.4831 0.622969 64.3616 0.622969ZM8.33721 0H64.3616C66.6564 0 68.7366 0.946914 70.2472 2.46696C71.7578 3.987 72.6988 6.08849 72.6988 8.38932V64.7639C72.6988 67.073 71.7578 69.1662 70.2472 70.6862C68.7366 72.2063 66.6482 73.1532 64.3616 73.1532H8.33721C6.04242 73.1532 3.96224 72.2063 2.45164 70.6862C0.941033 69.1662 0 67.0647 0 64.7639V8.38932C0 6.08018 0.941033 3.987 2.45164 2.46696C3.96224 0.946914 6.05067 0 8.33721 0Z" fill="var(--fill-0, #FF8B1E)"/>
</g>
</svg>
